<?xml version="1.0" encoding="UTF-8"?>
<svg width="36px" height="36px" viewBox="0 0 36 36" version="1.1" xmlns="http://www.w3.org/2000/svg" xmlns:xlink="http://www.w3.org/1999/xlink">
    <!-- Generator: Sketch 64 (93537) - https://sketch.com -->
    <title>icon-solar-active</title>
    <desc>Created with Sketch.</desc>
    <defs>
        <path d="M12,18 C12.5522847,18 13,18.4477153 13,19 L13,19 L13,21 C13,21.5522847 12.5522847,22 12,22 C11.4477153,22 11,21.5522847 11,21 L11,21 L11,19 C11,18.4477153 11.4477153,18 12,18 Z M16.7071068,16.4644661 C17.0976311,16.0739418 17.7307961,16.0739418 18.1213203,16.4644661 L18.1213203,16.4644661 L19.5355339,17.8786797 C19.9260582,18.2692039 19.9260582,18.9023689 19.5355339,19.2928932 C19.1450096,19.6834175 18.5118446,19.6834175 18.1213203,19.2928932 L18.1213203,19.2928932 L16.7071068,17.8786797 C16.3165825,17.4881554 16.3165825,16.8549904 16.7071068,16.4644661 Z M7.53553391,16.4644661 C7.9260582,16.8549904 7.9260582,17.4881554 7.53553391,17.8786797 L6.12132034,19.2928932 C5.73079605,19.6834175 5.09763107,19.6834175 4.70710678,19.2928932 C4.31658249,18.9023689 4.31658249,18.2692039 4.70710678,17.8786797 L6.12132034,16.4644661 C6.51184464,16.0739418 7.14500961,16.0739418 7.53553391,16.4644661 Z M12,8 C14.209139,8 16,9.790861 16,12 C16,14.209139 14.209139,16 12,16 C9.790861,16 8,14.209139 8,12 C8,9.790861 9.790861,8 12,8 Z M5,11 C5.55228475,11 6,11.4477153 6,12 C6,12.5522847 5.55228475,13 5,13 L3,13 C2.44771525,13 2,12.5522847 2,12 C2,11.4477153 2.44771525,11 3,11 L5,11 Z M21,11 C21.5522847,11 22,11.4477153 22,12 C22,12.5522847 21.5522847,13 21,13 L19,13 C18.4477153,13 18,12.5522847 18,12 C18,11.4477153 18.4477153,11 19,11 L21,11 Z M19.5355339,4.70710678 C19.9260582,5.09763107 19.9260582,5.73079605 19.5355339,6.12132034 L18.1213203,7.53553391 C17.7307961,7.9260582 17.0976311,7.9260582 16.7071068,7.53553391 C16.3165825,7.14500961 16.3165825,6.51184464 16.7071068,6.12132034 L18.1213203,4.70710678 C18.5118446,4.31658249 19.1450096,4.31658249 19.5355339,4.70710678 Z M4.70710678,4.70710678 C5.09763107,4.31658249 5.73079605,4.31658249 6.12132034,4.70710678 L6.12132034,4.70710678 L7.53553391,6.12132034 C7.9260582,6.51184464 7.9260582,7.14500961 7.53553391,7.53553391 C7.14500961,7.9260582 6.51184464,7.9260582 6.12132034,7.53553391 L6.12132034,7.53553391 L4.70710678,6.12132034 C4.31658249,5.73079605 4.31658249,5.09763107 4.70710678,4.70710678 Z M12,2 C12.5522847,2 13,2.44771525 13,3 L13,5 C13,5.55228475 12.5522847,6 12,6 C11.4477153,6 11,5.55228475 11,5 L11,3 C11,2.44771525 11.4477153,2 12,2 Z" id="path-1"></path>
    </defs>
    <g id="Page-1" stroke="none" stroke-width="1" fill="none" fill-rule="evenodd">
        <g id="icon-solar-active">
            <g id="asset-/-fuel-/-electricity-/-grey" fill="#FFCD00">
                <circle id="Oval-4-Copy" cx="18" cy="18" r="18"></circle>
            </g>
            <g id="Glyph-/-Weather-/-Sunny-/-Filled" transform="translate(6.000000, 6.000000)">
                <mask id="mask-2" fill="white">
                    <use xlink:href="#path-1"></use>
                </mask>
                <use id="Combined-Shape" fill="#000000" fill-rule="evenodd" xlink:href="#path-1"></use>
            </g>
        </g>
    </g>
</svg>