<?xml version="1.0" encoding="UTF-8"?>
<svg width="24px" height="24px" viewBox="0 0 24 24" version="1.1" xmlns="http://www.w3.org/2000/svg" xmlns:xlink="http://www.w3.org/1999/xlink">
    <!-- Generator: Sketch 64 (93537) - https://sketch.com -->
    <title>icon-grid</title>
    <desc>Created with Sketch.</desc>
    <g id="Page-1" stroke="none" stroke-width="1" fill="none" fill-rule="evenodd">
        <g id="Artboard" transform="translate(-158.000000, -7.000000)" fill="#FFFFFF">
            <g id="icon-grid" transform="translate(158.000000, 7.000000)">
                <circle id="Oval-4-Copy-2" fill-opacity="0.01" cx="12" cy="12" r="12"></circle>
                <path d="M11.7767303,11.2056258 C11.9128571,11.0816992 12.0294713,10.9754764 12.1704474,10.8471238 L11.3840522,10.8471238 C11.5298392,10.9802487 11.6457606,11.0860482 11.7767303,11.2056258 L11.7767303,11.2056258 Z M10.3177061,11.1412378 C10.0281335,11.8586652 9.75076107,12.5458806 9.47338868,13.2331345 C9.48408793,13.2397926 9.4947487,13.2464123 9.50544795,13.2530705 C10.0254779,12.7836888 10.5455078,12.3143456 11.0813942,11.830647 C10.8269598,11.6009209 10.5865345,11.3838954 10.3177061,11.1412378 L10.3177061,11.1412378 Z M12.4724512,11.8314937 C13.0125711,12.3185022 13.5334862,12.7881917 14.0543629,13.2578428 C14.0640615,13.2513386 14.0737601,13.2448344 14.0834202,13.2383302 C13.8035462,12.5462654 13.5236337,11.8542007 13.235562,11.1418536 C12.970159,11.3817401 12.7291948,11.5994584 12.4724512,11.8314937 L12.4724512,11.8314937 Z M9.70365356,8.76542613 C8.95866988,9.13920726 8.23450741,9.50252007 7.46027397,9.89096457 L9.70365356,9.89096457 L9.70365356,8.76542613 Z M9.70384599,4.04701655 C8.9540515,4.42403056 8.23277552,4.78668909 7.51153802,5.14934762 C7.5176189,5.1593926 7.52377674,5.16943759 7.52985761,5.17944408 L9.70384599,5.17944408 L9.70384599,4.04701655 Z M13.848306,8.68737545 L13.848306,9.889733 L16.0943027,9.889733 C16.0968813,9.88018834 16.0994984,9.8706052 16.1021154,9.86098357 C15.357863,9.47346274 14.6136106,9.08590343 13.848306,8.68737545 L13.848306,8.68737545 Z M16.0922629,5.19137491 C16.0960346,5.1759803 16.0998447,5.1605472 16.1036164,5.14507562 C15.3562466,4.75605381 14.6088767,4.3670705 13.8332963,3.96334684 C13.8332963,4.34201577 13.8386459,4.68062022 13.8306407,5.01891678 C13.8274848,5.15284989 13.8697815,5.19553145 14.0048692,5.19406896 C14.588094,5.18775717 15.1714343,5.19137491 15.7547361,5.19137491 L16.0922629,5.19137491 Z M12.8873744,7.13394381 L12.8873744,6.13414084 L10.6590816,6.13414084 L10.6590816,7.24186003 C10.9068963,7.11862617 11.1454743,7.02279472 11.3598442,6.88836129 C11.7290455,6.65678786 12.0777334,6.66252236 12.4382752,6.89983027 C12.5749408,6.98977328 12.7293872,7.05273724 12.8873744,7.13394381 L12.8873744,7.13394381 Z M9.98456671,14.9589473 C9.97921709,14.971109 9.97390594,14.9832323 9.9685948,14.995394 C10.5468164,15.428021 11.12346,15.8628418 11.7070697,16.2881179 C11.7443246,16.3152509 11.8505474,16.2883488 11.8995408,16.2524024 C12.4363508,15.8582234 12.9678113,15.4567705 13.5021582,15.0592047 C13.5352181,15.0345733 13.5800934,15.0257599 13.6195036,15.0095955 L13.5709336,14.9589473 L9.98456671,14.9589473 Z M11.7764609,12.4574001 C11.1985472,12.9792773 10.640762,13.4829505 10.0606161,14.0068291 L13.4943069,14.0068291 C12.9073105,13.47737 12.3485246,12.9734274 11.7764609,12.4574001 L11.7764609,12.4574001 Z M12.903,9.89331225 C12.903,9.34518715 12.9061943,8.81407309 12.8978428,8.28315147 C12.8970346,8.23227228 12.83434,8.1639587 12.782845,8.1354017 C12.5254471,7.99265517 12.26447,7.85572011 11.9992209,7.72825274 C11.9410677,7.70031152 11.8483922,7.69399973 11.7920094,7.72074787 C11.4450919,7.88523928 11.1031391,8.06023751 10.762187,8.23696764 C10.7172732,8.26025199 10.656426,8.31274761 10.6558487,8.3524657 C10.6486517,8.86287401 10.6511149,9.37339777 10.6511149,9.89331225 L12.903,9.89331225 Z M12.9028075,5.17852041 C12.9028075,4.62816309 12.9049628,4.09081422 12.8986895,3.55354231 C12.8981891,3.51136108 12.8477333,3.45359281 12.8055136,3.43057787 C12.5358,3.28379026 12.2638542,3.14054341 11.9875595,3.00657181 C11.9344096,2.98078584 11.8481228,2.97893848 11.7952423,3.00410867 C11.4428597,3.17171749 11.0942872,3.34756243 10.7477545,3.52706359 C10.7052654,3.54907788 10.6548865,3.60827015 10.6543477,3.65083625 C10.647882,4.15577947 10.6501912,4.66087664 10.6501912,5.17852041 L12.9028075,5.17852041 Z M11.0004955,16.9294189 C10.2162556,16.3429997 9.45464574,15.7735146 8.68025835,15.1945233 C8.01332535,16.8471732 7.35570608,18.4766542 6.6981253,20.1061737 C6.70909396,20.1119467 6.72006262,20.1177197 6.73103128,20.1234926 C8.14544959,19.0653441 9.55982941,18.0071956 11.0004955,16.9294189 L11.0004955,16.9294189 Z M14.8735486,15.1947157 C14.0970444,15.7754774 13.3333178,16.3466559 12.5536578,16.9297268 C13.9948242,18.0077344 15.4122445,19.0679997 16.8297032,20.128265 C16.8387476,20.1212989 16.8477919,20.1143713 16.8568362,20.1074438 C16.1993324,18.478771 15.5418286,16.8500597 14.8735486,15.1947157 L14.8735486,15.1947157 Z M17.1152732,6.12201759 C17.1152732,6.55849328 17.1208538,6.96818234 17.1135798,7.37764049 C17.1072296,7.73329448 16.8280483,7.95128216 16.51319,7.85910693 C16.3092114,7.79937584 16.1851694,7.62399274 16.1820135,7.37259876 C16.17778,7.03272425 16.1808204,6.69277276 16.1807434,6.35282128 C16.1807049,6.28377646 16.1807434,6.21477011 16.1807434,6.13402538 L13.8332578,6.13402538 L13.8332578,6.32030017 C13.8332578,6.69231093 13.8421097,7.06459109 13.8290243,7.43614001 C13.8235977,7.59000914 13.8815199,7.65990067 14.0119122,7.72721361 C15.4004291,8.44441001 16.7854822,9.16830308 18.171459,9.89042576 C18.2169116,9.91405649 18.2634033,9.93599381 18.3072779,9.96231859 C18.5035207,10.0801258 18.5929249,10.2834502 18.5383125,10.483888 C18.4808137,10.6948711 18.3174768,10.826495 18.0865962,10.8306516 C17.7736237,10.8362321 17.4604589,10.8320371 17.1282047,10.8320371 C17.1233939,10.9172848 17.1164663,10.985021 17.1162354,11.0527573 C17.1150808,11.4183408 17.1194683,11.7839628 17.1141956,12.1494694 C17.1096542,12.4627112 16.911641,12.6720009 16.63881,12.6654582 C16.3720599,12.6590695 16.1851309,12.4536669 16.182052,12.1495079 C16.177703,11.7205755 16.1809743,11.2915662 16.1809743,10.8478935 L14.1287573,10.8478935 C14.1531578,10.9136285 14.1747487,10.976708 14.199688,11.0385173 C15.5771207,14.4524261 16.9548614,17.8662194 18.3324866,21.2800897 C18.444059,21.5565769 18.4071505,21.7609789 18.2212605,21.903533 C18.0369486,22.044894 17.8194227,22.030423 17.5867332,21.856387 C15.7229077,20.4627129 13.8595441,19.0684615 11.9960265,17.6744411 C11.9293678,17.6245625 11.8623628,17.5751458 11.7800786,17.5140677 C11.7215021,17.5559026 11.6598082,17.5981993 11.6000001,17.6429591 C9.72609121,19.0445229 7.85260562,20.4466255 5.97758057,21.8466884 C5.90203152,21.9030711 5.81678386,21.9577605 5.72757209,21.9820455 C5.55476759,22.028999 5.39554884,21.9838928 5.2737005,21.846342 C5.13549538,21.6902406 5.12587375,21.5129717 5.20157675,21.3255038 C5.56592869,20.4231102 5.93012668,19.5206782 6.29451711,18.6183231 C7.31579555,16.0893735 8.33718946,13.5604624 9.35804456,11.0313203 C9.38121345,10.9739369 9.39872482,10.9142828 9.42354863,10.8420051 L7.36752144,10.8420051 C7.36752144,11.105022 7.36759842,11.3592255 7.36748296,11.6134675 C7.3673675,11.8058617 7.37148556,11.9984098 7.36555863,12.1906499 C7.35713008,12.4654822 7.16562113,12.661802 6.91130217,12.6656891 C6.65321153,12.6696148 6.44403726,12.4650974 6.43922644,12.1851079 C6.43218341,11.7747261 6.43722514,11.3641903 6.43637844,10.953693 C6.43630147,10.922211 6.43033605,10.8907291 6.42433216,10.8316137 C6.10497097,10.8316137 5.78637951,10.8373482 5.46809594,10.8299973 C5.15069756,10.8226849 4.94017626,10.550893 5.01522499,10.2554705 C5.06025422,10.07824 5.19345609,9.98448683 5.34840284,9.90701345 C6.6601391,9.25116457 7.96383168,8.57849707 9.28645962,7.94547069 C9.62644959,7.78274966 9.7626534,7.60236332 9.72243499,7.2276585 C9.68437181,6.87304365 9.71427584,6.51107788 9.71427584,6.13733522 L7.36752144,6.13733522 C7.36752144,6.47463114 7.36755993,6.80650045 7.36748296,7.13836976 C7.36748296,7.22173158 7.36925334,7.30517036 7.36667474,7.38849369 C7.35778435,7.67771993 7.17216384,7.8766183 6.90983968,7.87996663 C6.64143465,7.88343041 6.44234385,7.67764296 6.43837974,7.38010363 C6.43353044,7.01455861 6.43730212,6.64893661 6.43672482,6.2833531 C6.43668633,6.23913209 6.4330686,6.19491107 6.42979724,6.12186364 C6.1145926,6.12186364 5.80304417,6.1271363 5.49176515,6.12036267 C5.17386645,6.11347358 4.96557737,5.87732026 5.00872076,5.58193617 C5.03646955,5.39177425 5.16208957,5.28416592 5.32650401,5.20199719 C6.58120324,4.5750132 7.83447846,3.94510423 9.08810007,3.31588802 C9.89516251,2.91081733 10.7029562,2.50720914 11.5085177,2.09917499 C11.7684172,1.96751259 12.0183487,1.96566523 12.2780942,2.10129175 C14.2594961,3.13607897 16.2424373,4.16794121 18.2246473,5.20115048 C18.4919363,5.34047171 18.6013535,5.54125591 18.5382356,5.76925009 C18.4773884,5.98889269 18.3024286,6.11793802 18.0469551,6.1211324 C17.7466062,6.12490408 17.4461804,6.12201759 17.1152732,6.12201759 L17.1152732,6.12201759 Z" id="Fill-1"></path>
            </g>
        </g>
    </g>
</svg>