<?xml version="1.0" encoding="UTF-8"?>
<svg width="38px" height="38px" viewBox="0 0 38 38" version="1.1" xmlns="http://www.w3.org/2000/svg" xmlns:xlink="http://www.w3.org/1999/xlink">
    <!-- Generator: Sketch 64 (93537) - https://sketch.com -->
    <title>icon-solar-inactive</title>
    <desc>Created with Sketch.</desc>
    <defs>
        <path d="M10,16 C10.5522847,16 11,16.4477153 11,17 L11,17 L11,19 C11,19.5522847 10.5522847,20 10,20 C9.44771525,20 9,19.5522847 9,19 L9,19 L9,17 C9,16.4477153 9.44771525,16 10,16 Z M14.7071068,14.4644661 C15.0976311,14.0739418 15.7307961,14.0739418 16.1213203,14.4644661 L16.1213203,14.4644661 L17.5355339,15.8786797 C17.9260582,16.2692039 17.9260582,16.9023689 17.5355339,17.2928932 C17.1450096,17.6834175 16.5118446,17.6834175 16.1213203,17.2928932 L16.1213203,17.2928932 L14.7071068,15.8786797 C14.3165825,15.4881554 14.3165825,14.8549904 14.7071068,14.4644661 Z M5.53553391,14.4644661 C5.9260582,14.8549904 5.9260582,15.4881554 5.53553391,15.8786797 L4.12132034,17.2928932 C3.73079605,17.6834175 3.09763107,17.6834175 2.70710678,17.2928932 C2.31658249,16.9023689 2.31658249,16.2692039 2.70710678,15.8786797 L4.12132034,14.4644661 C4.51184464,14.0739418 5.14500961,14.0739418 5.53553391,14.4644661 Z M10,6 C12.209139,6 14,7.790861 14,10 C14,12.209139 12.209139,14 10,14 C7.790861,14 6,12.209139 6,10 C6,7.790861 7.790861,6 10,6 Z M3,9 C3.55228475,9 4,9.44771525 4,10 C4,10.5522847 3.55228475,11 3,11 L1,11 C0.44771525,11 1.28867715e-16,10.5522847 6.123234e-17,10 C-6.40303515e-18,9.44771525 0.44771525,9 1,9 L3,9 Z M19,9 C19.5522847,9 20,9.44771525 20,10 C20,10.5522847 19.5522847,11 19,11 L17,11 C16.4477153,11 16,10.5522847 16,10 C16,9.44771525 16.4477153,9 17,9 L19,9 Z M17.5355339,2.70710678 C17.9260582,3.09763107 17.9260582,3.73079605 17.5355339,4.12132034 L16.1213203,5.53553391 C15.7307961,5.9260582 15.0976311,5.9260582 14.7071068,5.53553391 C14.3165825,5.14500961 14.3165825,4.51184464 14.7071068,4.12132034 L16.1213203,2.70710678 C16.5118446,2.31658249 17.1450096,2.31658249 17.5355339,2.70710678 Z M2.70710678,2.70710678 C3.09763107,2.31658249 3.73079605,2.31658249 4.12132034,2.70710678 L4.12132034,2.70710678 L5.53553391,4.12132034 C5.9260582,4.51184464 5.9260582,5.14500961 5.53553391,5.53553391 C5.14500961,5.9260582 4.51184464,5.9260582 4.12132034,5.53553391 L4.12132034,5.53553391 L2.70710678,4.12132034 C2.31658249,3.73079605 2.31658249,3.09763107 2.70710678,2.70710678 Z M10,0 C10.5522847,-1.01453063e-16 11,0.44771525 11,1 L11,3 C11,3.55228475 10.5522847,4 10,4 C9.44771525,4 9,3.55228475 9,3 L9,1 C9,0.44771525 9.44771525,1.01453063e-16 10,0 Z" id="path-1"></path>
    </defs>
    <g id="Page-1" stroke="none" stroke-width="1" fill="none" fill-rule="evenodd">
        <g id="icon-solar-inactive" transform="translate(1.000000, 1.000000)">
            <g id="asset-/-fuel-/-electricity-/-grey" stroke="#FFFFFF">
                <circle id="Oval-4-Copy" cx="18" cy="18" r="18"></circle>
            </g>
            <g id="Glyph-/-Weather-/-Sunny-/-Outlined" transform="translate(8.000000, 8.000000)">
                <mask id="mask-2" fill="white">
                    <use xlink:href="#path-1"></use>
                </mask>
                <use id="Combined-Shape" fill="#FFFFFF" xlink:href="#path-1"></use>
            </g>
        </g>
    </g>
</svg>