<?xml version="1.0" encoding="UTF-8"?>
<svg width="38px" height="38px" viewBox="0 0 38 38" version="1.1" xmlns="http://www.w3.org/2000/svg" xmlns:xlink="http://www.w3.org/1999/xlink">
    <!-- Generator: Sketch 64 (93537) - https://sketch.com -->
    <title>icon-grid-active</title>
    <desc>Created with Sketch.</desc>
    <defs>
        <polygon id="path-1" points="0 0 16.9064457 0 16.9064457 24.9437755 0 24.9437755"></polygon>
    </defs>
    <g id="Page-1" stroke="none" stroke-width="1" fill="none" fill-rule="evenodd">
        <g id="icon-grid-active" transform="translate(1.000000, 1.000000)">
            <g id="asset-/-fuel-/-gas-/-grey-copy" fill="#FFFFFF" stroke="#FFFFFF">
                <circle id="Oval-4-Copy-2" cx="18" cy="18" r="18"></circle>
            </g>
            <g id="Group-3" transform="translate(10.000000, 5.000000)">
                <mask id="mask-2" fill="white">
                    <use xlink:href="#path-1"></use>
                </mask>
                <g id="Clip-2"></g>
                <path d="M8.45185423,11.4811534 C8.62163023,11.3265934 8.76707023,11.1941134 8.94289422,11.0340334 L7.96211024,11.0340334 C8.14393424,11.2000654 8.28851024,11.3320174 8.45185423,11.4811534 L8.45185423,11.4811534 Z M6.63217427,11.4008494 C6.27102228,12.2956174 5.92508628,13.1527053 5.57915029,14.0098413 C5.59249429,14.0181453 5.60579029,14.0264013 5.61913429,14.0347053 C6.26771028,13.4492973 6.91628626,12.8639373 7.58463825,12.2606734 C7.26731026,11.9741614 6.96745426,11.7034894 6.63217427,11.4008494 L6.63217427,11.4008494 Z M9.31955021,12.2617294 C9.9931822,12.8691213 10.6428622,13.4549133 11.2924942,14.0406573 C11.3045902,14.0325453 11.3166862,14.0244333 11.3287342,14.0163213 C10.9796782,13.1531853 10.6305742,12.2900494 10.2712942,11.4016174 C9.9402862,11.7008014 9.63975821,11.9723374 9.31955021,12.2617294 L9.31955021,12.2617294 Z M5.86633428,8.43776143 C4.9371983,8.90393742 4.03403032,9.35705741 3.06841434,9.8415214 L5.86633428,9.8415214 L5.86633428,8.43776143 Z M5.86657428,2.55300955 C4.9314383,3.02321754 4.03187032,3.47552153 3.13235034,3.92782552 C3.13993434,3.94035352 3.14761434,3.95288152 3.15519834,3.96536152 L5.86657428,3.96536152 L5.86657428,2.55300955 Z M11.0355022,8.34041743 L11.0355022,9.8399854 L13.8366861,9.8399854 C13.8399021,9.8280814 13.8431661,9.8161294 13.8464301,9.80412941 C12.9182061,9.32081741 11.9899822,8.83745742 11.0355022,8.34041743 L11.0355022,8.34041743 Z M13.8341421,3.98024152 C13.8388461,3.96104152 13.8435981,3.94179352 13.8483021,3.92249752 C12.9161901,3.43731353 11.9840782,2.95217754 11.0167822,2.44865755 C11.0167822,2.92092954 11.0234542,3.34323353 11.0134702,3.76515353 C11.0095342,3.93219352 11.0622862,3.98542552 11.2307662,3.98360152 C11.9581582,3.97572952 12.6856941,3.98024152 13.4131821,3.98024152 L13.8341421,3.98024152 Z M9.8370382,6.40299347 L9.8370382,5.1560495 L7.05793426,5.1560495 L7.05793426,6.53758547 C7.36700625,6.38388947 7.66455825,6.26436948 7.93191824,6.09670548 C8.39238223,5.80788948 8.82726222,5.81504148 9.27692622,6.11100948 C9.44737421,6.22318548 9.63999821,6.30171347 9.8370382,6.40299347 L9.8370382,6.40299347 Z M6.21668628,16.1622573 C6.21001428,16.1774253 6.20339028,16.1925453 6.19676628,16.2077133 C6.91791826,16.7472813 7.63710225,17.2895853 8.36497423,17.8199852 C8.41143823,17.8538252 8.54391823,17.8202732 8.60502223,17.7754412 C9.27452622,17.2838253 9.9373582,16.7831373 10.6037902,16.2872973 C10.6450222,16.2565773 10.7009902,16.2455853 10.7501422,16.2254253 L10.6895662,16.1622573 L6.21668628,16.1622573 Z M8.45151823,13.0423533 C7.73075025,13.6932333 7.03508626,14.3214093 6.31153427,14.9747853 L10.5939982,14.9747853 C9.8619022,14.3144493 9.16499022,13.6859373 8.45151823,13.0423533 L8.45151823,13.0423533 Z M9.8565262,9.8444494 C9.8565262,9.16083342 9.8605102,8.49843343 9.8500942,7.83627344 C9.8490862,7.77281745 9.77089421,7.68761745 9.70667021,7.65200145 C9.38564621,7.47396945 9.06015822,7.30318545 8.72934223,7.14420946 C8.65681423,7.10936146 8.54123023,7.10148946 8.47091023,7.13484946 C8.03823824,7.34000145 7.61175825,7.55825745 7.18652626,7.77867345 C7.13051026,7.80771344 7.05462226,7.87318544 7.05390226,7.92272144 C7.04492626,8.55929743 7.04799826,9.19601742 7.04799826,9.8444494 L9.8565262,9.8444494 Z M9.8562862,3.96420952 C9.8562862,3.27780953 9.8589742,2.60763355 9.8511502,1.93755356 C9.8505262,1.88494556 9.78759821,1.81289756 9.73494221,1.78419356 C9.39855821,1.60112157 9.05939022,1.42246557 8.71479823,1.25537758 C8.64851023,1.22321758 8.54089423,1.22091358 8.47494223,1.25230558 C8.03545424,1.46134557 7.60071825,1.68065757 7.16852626,1.90452956 C7.11553426,1.93198556 7.05270226,2.00580956 7.05203026,2.05889756 C7.04396626,2.68865755 7.04684626,3.31860953 7.04684626,3.96420952 L9.8562862,3.96420952 Z M7.48374225,18.6198092 C6.50564627,17.8884332 5.55577429,17.1781773 4.58996631,16.4560653 C3.75817433,18.5172332 2.93799834,20.5495052 2.11787036,22.5818252 C2.13155036,22.5890252 2.14523036,22.5962252 2.15891036,22.6034252 C3.92295832,21.2837132 5.68695829,19.9640012 7.48374225,18.6198092 L7.48374225,18.6198092 Z M12.3141742,16.4563053 C11.3457262,17.1806253 10.3932142,17.8929932 9.42083021,18.6201932 C11.2182382,19.9646732 12.9860301,21.2870252 14.7538701,22.6093772 C14.7651501,22.6006892 14.7764301,22.5920492 14.7877101,22.5834092 C13.9676781,20.5521452 13.1476461,18.5208332 12.3141742,16.4563053 L12.3141742,16.4563053 Z M15.1100301,5.1409295 C15.1100301,5.68529749 15.1169901,6.19625748 15.1079181,6.70692947 C15.0999981,7.15049746 14.7518061,7.42236945 14.3591181,7.30740945 C14.1047181,7.23291346 13.9500141,7.01417746 13.9460781,6.70064147 C13.9407981,6.27675348 13.9445901,5.85276948 13.9444941,5.42878549 C13.9444461,5.34267349 13.9444941,5.2566095 13.9444941,5.1559055 L11.0167342,5.1559055 L11.0167342,5.38822549 C11.0167342,5.85219348 11.0277742,6.31649747 11.0114542,6.77988947 C11.0046862,6.97179346 11.0769262,7.05896146 11.2395502,7.14291346 C12.9712941,8.03739344 14.6987181,8.94022542 16.4272941,9.8408494 C16.4839821,9.8703214 16.5419661,9.8976814 16.5966861,9.9305134 C16.8414381,10.0774414 16.9529421,10.3310254 16.8848301,10.5810094 C16.8131181,10.8441454 16.6094061,11.0083054 16.3214541,11.0134894 C15.9311181,11.0204494 15.5405421,11.0152174 15.1261581,11.0152174 C15.1201581,11.1215374 15.1115181,11.2060174 15.1112301,11.2904974 C15.1097901,11.7464494 15.1152621,12.2024494 15.1086861,12.6583053 C15.1030221,13.0489773 14.8560621,13.3100013 14.5157901,13.3018413 C14.1831021,13.2938733 13.9499661,13.0376973 13.9461261,12.6583533 C13.9407021,12.1233934 13.9447821,11.5883374 13.9447821,11.0349934 L11.3852782,11.0349934 C11.4157102,11.1169774 11.4426382,11.1956494 11.4737422,11.2727374 C13.1916621,15.5305293 14.9099661,19.7881772 16.6281261,24.0459211 C16.7672781,24.3907531 16.7212461,24.6456811 16.4894061,24.8234731 C16.2595341,24.9997771 15.9882381,24.9817291 15.6980301,24.7646731 C13.3734861,23.0264971 11.0495182,21.2876012 8.72535823,19.5489932 C8.64222223,19.4867852 8.55865423,19.4251532 8.45603023,19.3489772 C8.38297423,19.4011532 8.30603023,19.4539052 8.23143824,19.5097292 C5.89431828,21.2577452 3.55772633,23.0064331 1.21921438,24.7525771 C1.12499038,24.8228971 1.01867038,24.8911051 0.907406382,24.9213931 C0.691886386,24.9799531 0.49331039,24.9236971 0.341342393,24.7521451 C0.168974397,24.5574571 0.156974397,24.3363691 0.251390395,24.1025611 C0.705806386,22.9771051 1.16003038,21.8516012 1.61449437,20.7261932 C2.88822234,17.5721133 4.16209432,14.4180813 5.43529429,11.2637614 C5.46419029,11.1921934 5.48603029,11.1177934 5.51699029,11.0276494 L2.95273434,11.0276494 C2.95273434,11.3556814 2.95283034,11.6727214 2.95268634,11.9898094 C2.95254234,12.2297614 2.95767834,12.4699054 2.95028634,12.7096653 C2.93977434,13.0524333 2.70092635,13.2972813 2.38374235,13.3021293 C2.06185436,13.3070253 1.80097436,13.0519533 1.79497436,12.7027533 C1.78619036,12.1909294 1.79247836,11.6789134 1.79142236,11.1669454 C1.79132636,11.1276814 1.78388636,11.0884174 1.77639836,11.0146894 C1.37809437,11.0146894 0.980750381,11.0218414 0.583790388,11.0126734 C0.187934396,11.0035534 -0.0746255985,10.6645774 0.0189743996,10.2961294 C0.0751343985,10.0750894 0.241262395,9.9581614 0.434510391,9.8615374 C2.07049436,9.04356942 3.69644633,8.20462544 5.34601429,7.41512145 C5.77004629,7.21217746 5.93991828,6.98720146 5.88975828,6.51987347 C5.84228628,6.07760148 5.87958228,5.62616149 5.87958228,5.1600335 L2.95273434,5.1600335 C2.95273434,5.58070549 2.95278234,5.99460948 2.95268634,6.40851347 C2.95268634,6.51248147 2.95489434,6.61654547 2.95167834,6.72046547 C2.94059034,7.08118546 2.70908635,7.32924945 2.38191835,7.33342545 C2.04716636,7.33774545 1.79886236,7.08108946 1.79391836,6.71000147 C1.78787036,6.25409748 1.79257436,5.79809748 1.79185436,5.34214549 C1.79180636,5.28699349 1.78729436,5.2318415 1.78321436,5.1407375 C1.39009437,5.1407375 1.00153438,5.1473135 0.613310388,5.1388655 C0.216830396,5.1302735 -0.0429455991,4.8357455 0.0108623998,4.46734551 C0.0454703991,4.23017752 0.202142396,4.09596952 0.407198392,3.99348952 C1.97204636,3.21152154 3.53511833,2.42590555 5.0986223,1.64115357 C6.10518228,1.13595358 7.11265426,0.632577587 8.11734224,0.123681598 C8.44148623,-0.0405263992 8.75319823,-0.0428303991 9.07715022,0.126321597 C11.5483342,1.41689757 14.0214381,2.70382555 16.4936301,3.99243352 C16.8269901,4.16619352 16.9634541,4.41660951 16.8847341,4.70096151 C16.8088461,4.9748975 16.5906381,5.1358415 16.2720141,5.1398255 C15.8974221,5.1445295 15.5227341,5.1409295 15.1100301,5.1409295 L15.1100301,5.1409295 Z" id="Fill-1" fill="#000000" mask="url(#mask-2)"></path>
            </g>
        </g>
    </g>
</svg>