<?xml version="1.0" encoding="UTF-8"?>
<svg width="24px" height="24px" viewBox="0 0 24 24" version="1.1" xmlns="http://www.w3.org/2000/svg" xmlns:xlink="http://www.w3.org/1999/xlink">
    <!-- Generator: Sketch 64 (93537) - https://sketch.com -->
    <title>icon-battery</title>
    <desc>Created with Sketch.</desc>
    <defs>
        <path d="M12.0705912,1.46295003 C12.0806011,1.57305805 12.0538334,1.68337868 11.9944754,1.77665565 L8.734,6.898 L12.1365616,6.50544736 C12.410874,6.47370837 12.6589776,6.67035291 12.6907165,6.94466522 C12.7053289,7.07095659 12.6712842,7.19807162 12.5955071,7.3001543 L3.30133633,19.8207522 C3.13674412,20.0424818 2.82356842,20.0888008 2.60183882,19.9242086 C2.43978755,19.8039162 2.36594332,19.5979946 2.41462104,19.4021341 L4.449,11.215 L1.59464664,11.7079879 C1.32251693,11.7548923 1.06388862,11.5723112 1.01698416,11.3001815 C1.00753415,11.2453545 1.00730092,11.1893348 1.01629409,11.1344311 L2.47821947,2.20930469 C2.5150642,1.98436582 2.69937573,1.81281685 2.92637611,1.79218045 L11.5273768,1.0102713 C11.8023851,0.985270544 12.0455905,1.18794171 12.0705912,1.46295003 Z" id="path-1"></path>
    </defs>
    <g id="Page-1" stroke="none" stroke-width="1" fill="none" fill-rule="evenodd">
        <g id="Artboard" transform="translate(-120.000000, -7.000000)">
            <g id="icon-battery" transform="translate(120.000000, 7.000000)">
                <circle id="Oval-4-Copy-2" fill-opacity="0.01" fill="#FFFFFF" cx="12" cy="12" r="12"></circle>
                <g id="Group-2" transform="translate(2.000000, 2.000000)">
                    <path d="M15.1239039,3.11111116 C15.6077584,3.11111116 16,3.50335275 16,3.98720728 L16,19.1239039 C16,19.6077584 15.6077584,20 15.1239039,20 L4.87609611,20 C4.39224159,20 4,19.6077584 4,19.1239039 L4,3.98720728 C4,3.50335275 4.39224159,3.11111116 4.87609611,3.11111116 L15.1239039,3.11111116 Z M10.0000004,1 C11.2745037,1 12.3076928,1.66834085 12.3076928,2.49278107 C12.3076928,3.31722128 7.69230794,3.31722128 7.69230794,2.49278107 C7.69230794,1.66834085 8.72549704,1 10.0000004,1 Z" id="Combined-Shape" stroke="#000000" stroke-width="1.31414425" fill="#FFFFFF" transform="translate(10.000000, 10.500000) rotate(-270.000000) translate(-10.000000, -10.500000) "></path>
                    <g id="Glyph-/-Fuel-/-Electricity-/-Filled" transform="translate(3.000000, 0.000000)">
                        <mask id="mask-2" fill="white">
                            <use xlink:href="#path-1"></use>
                        </mask>
                        <use id="Combined-Shape" stroke="#000000" fill="#FFFFFF" transform="translate(6.873831, 10.593403) rotate(2.000000) translate(-6.873831, -10.593403) " xlink:href="#path-1"></use>
                    </g>
                </g>
            </g>
        </g>
    </g>
</svg>