<?xml version="1.0" encoding="UTF-8"?>
<svg width="24px" height="24px" viewBox="0 0 24 24" version="1.1" xmlns="http://www.w3.org/2000/svg" xmlns:xlink="http://www.w3.org/1999/xlink">
    <!-- Generator: Sketch 64 (93537) - https://sketch.com -->
    <title>icon-home</title>
    <desc>Created with Sketch.</desc>
    <defs>
        <path d="M2,10.4142136 L2,11 C1,11 0.683417511,11.0976311 0.292893219,10.7071068 C-0.0976310729,10.3165825 -0.0976310729,9.68341751 0.292893219,9.29289322 L9.29289322,0.292893219 C9.68341751,-0.0976310729 10.3165825,-0.0976310729 10.7071068,0.292893219 L19.7071068,9.29289322 C20.0976311,9.68341751 20.0976311,10.3165825 19.7071068,10.7071068 C19.4467573,10.9674563 18.8777217,11.0650874 18,11 L18,19 L12,19 L12,14 L8,14 L8,19 L2,19 L2,10.4142136 Z" id="path-1"></path>
    </defs>
    <g id="Page-1" stroke="none" stroke-width="1" fill="none" fill-rule="evenodd">
        <g id="Artboard" transform="translate(-12.000000, -7.000000)">
            <g id="icon-home" transform="translate(12.000000, 7.000000)">
                <circle id="Oval-4-Copy" fill-opacity="0.01" fill="#FFFFFF" cx="12" cy="12" r="12"></circle>
                <g id="Glyph-/-Fuel-/-Electricity-/-White" transform="translate(2.000000, 2.000000)">
                    <mask id="mask-2" fill="white">
                        <use xlink:href="#path-1"></use>
                    </mask>
                    <use id="Combined-Shape" fill="#FFFFFF" xlink:href="#path-1"></use>
                </g>
            </g>
        </g>
    </g>
</svg>